<svg xmlns="http://www.w3.org/2000/svg" height="444" width="512">
  <path d="M512 444L256 0 0 444z" fill="#663695"/>
  <circle cx="256" cy="294" r="130" fill="#fff"/>
  <path d="M255.887 73.395A7.5 7.5 0 00248.5 81v53a7.5 7.5 0 1015 0V81a7.5 7.5 0 00-7.613-7.605zm141.082 294.044a7.5 7.5 0 00-4.162 13.78l43 29a7.5 7.5 0 108.386-12.438l-43-29a7.5 7.5 0 00-4.224-1.342zm-282.162.006a7.5 7.5 0 00-4 1.336l-43 29a7.5 7.5 0 108.386 12.438l43-29a7.5 7.5 0 00-4.386-13.774z" fill="#fff"/>
  <path d="M262.89 208.224c-5.041 0-5.041 3.361-6.722 6.302-1.68-2.94-2.52-5.882-6.722-5.882l-64.278-.42c-4.201.42-2.941 8.823-2.941 14.284 0 0-10.083-1.26-10.083 5.882v122.676s0 6.722 5.042 6.722h105.87v15.124c.84 5.462 4.201 3.781 12.184-2.1 5.041 2.94 9.663 9.242 12.183 2.1v-15.124h26.888c5.882 0 5.882-6.722 5.882-6.722V228.39s0-5.882-10.083-5.882c0-13.864-4.201-14.284-4.201-14.284zm-74.781 7.142l60.077.42s4.201-.42 5.042 5.882v104.19h-65.12zm76.462.42h59.657v110.072H259.11v-104.19c0-5.882 5.462-5.882 5.462-5.882zm-84.445 12.604h2.101v114.273c0 3.361 2.52 3.361 2.52 3.361h54.617v5.042h-61.338V228.39zm149.984 0h4.201v122.676h-26.888v-5.042h20.166s2.94.42 2.52-3.781zm-132.339 1.68c-2.94 3.782 0 7.563 0 7.563h47.474s2.521-3.781 0-7.562zm69.32 0c-2.94 3.782 0 7.563 0 7.563h47.474s2.521-3.781 0-7.562zm-69.32 12.604c-2.94 3.781 0 7.562 0 7.562h47.474s2.521-3.78 0-7.562zm69.32 0c-2.94 3.781 0 7.562 0 7.562h47.474s2.521-3.78 0-7.562zm-69.32 12.604c-2.94 3.78 0 7.562 0 7.562h47.474s2.521-3.781 0-7.562zm69.32 0c-2.94 3.78 0 7.562 0 7.562h47.474s2.521-3.781 0-7.562zm-69.32 12.603c-2.94 3.782 0 7.563 0 7.563h47.474s2.521-3.781 0-7.563zm69.32 0c-2.94 3.782 0 7.563 0 7.563h47.474s2.521-3.781 0-7.563zm-69.32 12.604c-2.94 3.781 0 7.562 0 7.562h47.474s2.521-3.78 0-7.562zm69.32 0c-2.94 3.781 0 7.562 0 7.562h47.474s2.521-3.78 0-7.562zm-69.32 12.604c-2.94 3.78 0 7.562 0 7.562h47.474s2.521-3.781 0-7.562zm69.32 0c-2.94 3.78 0 7.562 0 7.562h47.474s2.521-3.781 0-7.562zm-69.32 12.603c-2.94 3.782 0 7.563 0 7.563h47.474s2.521-3.781 0-7.563zm69.32 0c-2.94 3.782 0 7.563 0 7.563h47.474s2.521-3.781 0-7.563zM188.11 332.58h65.119v6.722h-65.12zm71 0h65.12v6.722h-65.12zm-13.024 13.444h18.486v5.042h-18.486zm24.368 0h12.603v5.042h-12.603zm18.485 0h12.183v21.426s-2.94-4.2-5.881-4.2c-3.361 0-6.302 4.2-6.302 4.2z" fill="#639"/>
</svg>
