<svg xmlns="http://www.w3.org/2000/svg" height="1125" width="1500">
    <path d="M752 0A739 739 0 0068 434a770 770 0 0029 691h1313c189-337 72-819-264-1019A778 778 0 00752 0z" fill="#639"/>
    <path d="M754 11L99 1103h1313zm0 144l214 354c-114-104-319-93-425 0zM435 684c-43 144 81 308 193 351H223zm641 0l212 351H883a307 307 0 00193-351z" fill="#fff"/>
    <path d="M766 565c-12 0-12 8-16 15-4-7-6-14-16-14l-153-1c-10 1-7 21-7 34 0 0-24-3-24 14v292s0 16 12 16h252v36c2 13 10 9 29-5 12 7 23 22 29 5v-36h64c14 0 14-16 14-16V613s0-14-24-14c0-33-10-34-10-34zm-178 17l143 1s10-1 12 14v248H588zm182 1h142v262H757V597c0-14 13-14 13-14zm-201 30h5v272c0 8 6 8 6 8h130v12H564V613h5zm357 0h10v292h-64v-12h48s7 1 6-9V613zm-315 4c-7 9 0 18 0 18h113s6-9 0-18zm165 0c-7 9 0 18 0 18h113s6-9 0-18zm-165 30c-7 9 0 18 0 18h113s6-9 0-18zm165 0c-7 9 0 18 0 18h113s6-9 0-18zm-165 30c-7 9 0 18 0 18h113s6-9 0-18zm165 0c-7 9 0 18 0 18h113s6-9 0-18zm-165 30c-7 9 0 18 0 18h113s6-9 0-18zm165 0c-7 9 0 18 0 18h113s6-9 0-18zm-165 30c-7 9 0 18 0 18h113s6-9 0-18zm165 0c-7 9 0 18 0 18h113s6-9 0-18zm-165 30c-7 9 0 18 0 18h113s6-9 0-18zm165 0c-7 9 0 18 0 18h113s6-9 0-18zm-165 30c-7 9 0 18 0 18h113s6-9 0-18zm165 0c-7 9 0 18 0 18h113s6-9 0-18zm-188 64h155v16H588zm169 0h155v16H757zm-31 32h44v12h-44zm58 0h30v12h-30zm44 0h29v51s-7-10-14-10c-8 0-15 10-15 10z" fill="#639"/>
</svg>
