<svg xmlns="http://www.w3.org/2000/svg" height="400" width="400">
    <path d="M216 0c-12 0-12 8-16 15-4-7-6-14-16-14L31 0c-10 1-7 21-7 34 0 0-24-3-24 14v292s0 16 12 16h252v36c2 13 10 9 29-5 12 7 23 22 29 5v-36h64c14 0 14-16 14-16V48s0-14-24-14c0-33-10-34-10-34zM38 17l143 1s10-1 12 14v248H38zm182 1h142v262H207V32c0-14 13-14 13-14zM19 48h5v272c0 8 6 8 6 8h130v12H14V48h5zm357 0h10v292h-64v-12h48s7 1 6-9V48zM61 52c-7 9 0 18 0 18h113s6-9 0-18zm165 0c-7 9 0 18 0 18h113s6-9 0-18zM61 82c-7 9 0 18 0 18h113s6-9 0-18zm165 0c-7 9 0 18 0 18h113s6-9 0-18zM61 112c-7 9 0 18 0 18h113s6-9 0-18zm165 0c-7 9 0 18 0 18h113s6-9 0-18zM61 142c-7 9 0 18 0 18h113s6-9 0-18zm165 0c-7 9 0 18 0 18h113s6-9 0-18zM61 172c-7 9 0 18 0 18h113s6-9 0-18zm165 0c-7 9 0 18 0 18h113s6-9 0-18zM61 202c-7 9 0 18 0 18h113s6-9 0-18zm165 0c-7 9 0 18 0 18h113s6-9 0-18zM61 232c-7 9 0 18 0 18h113s6-9 0-18zm165 0c-7 9 0 18 0 18h113s6-9 0-18zM38 296h155v16H38zm169 0h155v16H207zm-31 32h44v12h-44zm58 0h30v12h-30zm44 0h29v51s-7-10-14-10c-8 0-15 10-15 10z" fill="#639"/>
</svg>
