<?xml version="1.0" encoding="UTF-8" standalone="no"?>
<svg
   xmlns:dc="http://purl.org/dc/elements/1.1/"
   xmlns:cc="http://creativecommons.org/ns#"
   xmlns:rdf="http://www.w3.org/1999/02/22-rdf-syntax-ns#"
   xmlns:svg="http://www.w3.org/2000/svg"
   xmlns="http://www.w3.org/2000/svg"
   xmlns:sodipodi="http://sodipodi.sourceforge.net/DTD/sodipodi-0.dtd"
   xmlns:inkscape="http://www.inkscape.org/namespaces/inkscape"
   height="520"
   width="600"
   version="1.1"
   id="svg9"
   sodipodi:docname="magic.source.svg"
   inkscape:version="0.92.4 (5da689c313, 2019-01-14)">
  <metadata
     id="metadata15">
    <rdf:RDF>
      <cc:Work
         rdf:about="">
        <dc:format>image/svg+xml</dc:format>
        <dc:type
           rdf:resource="http://purl.org/dc/dcmitype/StillImage" />
      </cc:Work>
    </rdf:RDF>
  </metadata>
  <defs
     id="defs13" />
  <sodipodi:namedview
     pagecolor="#ffffff"
     bordercolor="#666666"
     borderopacity="1"
     objecttolerance="10"
     gridtolerance="10"
     guidetolerance="10"
     inkscape:pageopacity="0"
     inkscape:pageshadow="2"
     inkscape:window-width="1707"
     inkscape:window-height="1038"
     id="namedview11"
     showgrid="false"
     inkscape:zoom="0.45384615"
     inkscape:cx="-163.81356"
     inkscape:cy="260"
     inkscape:window-x="0"
     inkscape:window-y="20"
     inkscape:window-maximized="0"
     inkscape:current-layer="svg9" />
  <path
     d="m 599.00332,323.32954 c 0,76.48296 -26.9103,139.05993 -74.75083,191.70404 L 69.767443,512.05373 C 22.923589,459.40961 0.99667887,399.8125 0.99667887,323.32954 a 300,298.97884 0 1 1 598.00664113,0 z"
     style="fill:#663388"
     id="path2"
     inkscape:connector-curvature="0" />
  <path
     d="M 508.30565,484.24174 298.00664,47.196254 87.707642,484.24174 Z"
     style="fill:#d8d8d8"
     id="path4"
     inkscape:connector-curvature="0" />
  <path
     d="M 252.15947,61.102247 C 203.32226,161.42405 153.48837,258.766 97.67442,375.97366 l 12.95681,8.93956 150.49834,-311.891551 c 26.9103,-61.583682 63.78737,-31.785126 72.75747,0 l 12.95681,-6.952996 c 0,0 -10.96345,-40.724693 -48.83721,-41.717978 -20.93023,-0.993286 -38.87043,17.879133 -45.84717,36.751552 z M 293.02326,49.182824 C 218.27243,203.14203 148.50498,345.18181 81.727576,477.28875 c -0.996678,4.96642 0,7.94628 4.983388,11.91942 H 509.30233 c 3.98671,-3.97314 3.98671,-5.95971 3.98671,-10.92614 L 302.99003,49.182824 c -3.98671,-1.98657 -6.97674,-1.98657 -9.96677,0 z m 60.79734,31.785127 -11.96013,7.946281 c -0.99668,3.973141 2.99003,9.932852 6.97674,13.905998 l 11.96013,-5.959716 z m -63.78738,9.932852 V 216.05474 c -3.98671,1.98657 -7.97342,1.98657 -11.96013,0.99328 -8.9701,-19.8657 -10.96346,-46.6844 -17.9402,-66.5501 11.96013,-23.83885 17.9402,-39.73141 29.90033,-59.597117 z m 16.94352,0.993285 28.90366,57.610542 -16.94352,67.54339 c -5.98007,0.99329 -8.9701,0.99329 -12.95681,-0.99328 0,-50.65755 -0.99668,-78.46953 0.99667,-124.160652 z m 60.79735,20.858992 -12.95681,5.95971 c 0,5.95971 4.98338,9.93285 6.97674,13.90599 l 12.95681,-5.95971 z m 15.94684,30.79184 -13.95349,6.953 158.47176,324.80426 c 2.99004,9.93285 0.99668,26.8187 -16.94352,30.79184 H 84.717609 C 68.770765,502.12088 61.794021,483.24846 66.77741,472.32232 87.707642,429.61106 81.727576,446.4969 87.707642,429.61106 l -12.95681,-5.95971 -22.923588,47.67768 c -4.983389,18.87242 7.973421,42.71127 28.903654,48.67098 H 515.28239 c 20.93023,-6.953 35.8804,-29.79856 27.90698,-50.65755 z m -135.54817,30.79184 c 1.99335,0 12.95681,43.70455 12.95681,45.69112 -0.99668,3.97314 -13.95349,7.94628 -18.93688,8.93957 -4.98339,-3.97314 -7.97342,-12.91271 -11.96013,-18.87242 z m 98.67109,0 17.9402,35.75827 -11.96013,17.87913 -17.9402,-5.95971 z m 26.9103,53.6374 c 1.99336,3.97314 10.96346,15.89256 7.97342,18.87242 -1.99335,0 -13.95348,-9.93285 -13.95348,-10.92614 0,-1.98657 4.98339,-5.95971 5.98006,-7.94628 z m -151.49501,0.99329 c 1.99335,0 5.98006,4.96642 5.98006,6.95299 -3.98671,4.96643 -10.96345,9.93285 -15.94684,10.92614 z m 111.6279,7.94628 c 77.74087,26.8187 109.63455,125.15393 46.84386,194.6839 -55.81396,49.66426 -117.60798,44.69783 -167.44186,0 -47.84054,-48.67098 -40.86379,-134.09351 9.96677,-175.81148 36.87708,-24.83213 67.77409,-31.78513 110.63123,-18.87242 z m -122.59136,100.3218 -16.94352,0.99329 v 13.90599 h 16.94352 c 13.95349,28.80527 48.83721,34.76498 78.73754,38.73812 v 38.73813 h 14.95017 l 0.99668,-37.74484 12.95681,-0.99329 c -5.98007,46.68441 55.81395,51.65083 55.81395,8.93957 h -13.95349 c -5.98006,28.80527 -31.89369,14.89928 -23.92026,-11.91942 11.96013,-6.953 37.87375,-11.91942 47.84053,-35.75827 h 15.94684 v -13.90599 l -15.94684,-0.99329 c -2.99004,-6.95299 -3.98671,-12.9127 -9.96678,-17.87913 l -9.96678,6.953 c 1.99336,7.94628 6.97675,13.90599 2.99004,25.82541 -16.94353,36.75155 -131.56147,29.79856 -140.53157,-4.96643 -2.99003,-42.71126 72.75748,-77.47624 128.57143,-33.77169 0.99668,0 10.96346,-4.96643 10.96346,-6.953 -69.76744,-60.5904 -138.53821,-16.88585 -155.48173,30.79184 z m -45.84718,6.953 c 0.99668,0 1.99336,23.83884 0.99668,24.83213 -7.97342,3.97314 -9.96677,4.96643 -15.94684,4.96643 z m 265.11628,0 53.8206,109.26137 c -67.77408,-47.67769 -64.78405,-47.67769 -67.77408,-47.67769 6.97674,-17.87913 13.95348,-34.76498 13.95348,-61.58368 z m -259.13621,40.72469 6.97675,20.85899 c -21.92691,19.86571 -28.90366,21.85228 -66.77741,47.67769 l 28.90365,-58.60383 z m -81.727572,7.94628 -7.973422,13.906 13.953488,7.94628 c 1.993356,-4.96643 6.976746,-9.93285 6.976746,-14.89928 z m 318.936872,28.80527 70.76412,49.66426 -69.76744,0.99329 c -21.92691,-35.75827 -22.92359,-20.85899 -12.95681,-35.75827 z m -220.26578,0.99329 c 5.98007,8.93957 11.96014,18.87242 24.91695,28.80527 0,0.99329 -8.9701,17.87913 -12.95681,19.8657 h -82.72426 c -0.99667,0 68.77077,-49.66426 70.76412,-48.67097 z m 187.37542,32.77841 13.95349,15.89256 h -41.86047 z m -147.50831,4.96643 19.93356,10.92613 h -26.9103 c 0,-0.99328 3.98671,-10.92613 6.97674,-10.92613 z"
     id="path6"
     style="fill:#212121"
     inkscape:connector-curvature="0" />
  <circle
     cy="336"
     cx="300"
     id="circle8"
     style="fill:#212121"
     r="30" />
  <circle
     cy="336"
     cx="300"
     id="circle10"
     style="fill:#663388"
     r="20" />
</svg>
