<svg xmlns="http://www.w3.org/2000/svg" height="1024" width="1024">
    <path d="M664 592a152 152 0 01-152 152 152 152 0 01-152-152 152 152 0 01152-152 152 152 0 01152 152z" fill="#ff2cff"/>
    <path d="M1024 512c9 208-137 400-326 476a485 485 0 01-360 7 514 514 0 01-165-870C372-50 712-38 889 164c85 95 136 220 135 348z" fill="#639"/>
    <path d="M513 134L116 819h794L513 134zm0 48l355 613H158l355-613zm-1 52L205 768h614L512 234zm0 72l99 171c-53-51-148-46-197-1l98-170zm149 256l99 171H568c67-25 108-100 93-171zm-298 2c-20 70 38 149 91 170H264l99-170z" fill="#fff"/>
    <path d="M511 504c-48 0-91 31-102 72l-18-1-1 31 19 1c15 31 49 36 82 40v42l28-3 2-38 18-1c-7 57 61 65 75 7l-24-4c-7 31-33 21-24-8 13-7 39-9 50-35l18-1v-29l-18-1c-3-8-6-13-13-18l-17 9c2 8 7 15 3 28-19 39-147 31-156-5-3-47 81-84 142-37 2 0 16-13 16-15-25-24-53-34-80-34zm0 43a31 31 0 00-31 31 31 31 0 0031 31 31 31 0 0031-31 31 31 0 00-31-31z" fill="#639"/>
</svg>
