<svg xmlns="http://www.w3.org/2000/svg" height="1125" width="1500">
    <path d="M752 0A739 739 0 0068 434a770 770 0 0029 691h1313c189-337 72-819-264-1019A778 778 0 00752 0z" fill="#639"/>
    <path d="M754 11L99 1103h1313zm0 144l214 354c-114-104-319-93-425 0zm-6 410c85 2 180 63 218 153l36 2v61l-36 2c-22 54-70 59-97 72-18 61 36 83 50 18l52 9c-30 122-174 106-158-16l-38 3-5 81-56 6v-90c-70-9-149-18-180-83l-38-2 2-65 36 2c22-88 112-153 214-153zm0 56c-90 0-169 59-165 124 27 74 271 94 325-2-14-88-118-122-160-122zm0 27c33 0 63 29 63 65s-30 66-63 66c-36 0-68-30-68-66s32-65 68-65zm-313 36c-43 144 81 308 193 351H223zm641 0l212 351H883a307 307 0 00193-351z" fill="#fff"/>
</svg>
