<?xml version="1.0" encoding="UTF-8" standalone="no"?>
<svg
   xmlns:dc="http://purl.org/dc/elements/1.1/"
   xmlns:cc="http://creativecommons.org/ns#"
   xmlns:rdf="http://www.w3.org/1999/02/22-rdf-syntax-ns#"
   xmlns:svg="http://www.w3.org/2000/svg"
   xmlns="http://www.w3.org/2000/svg"
   xmlns:sodipodi="http://sodipodi.sourceforge.net/DTD/sodipodi-0.dtd"
   xmlns:inkscape="http://www.inkscape.org/namespaces/inkscape"
   height="1024"
   width="1024"
   version="1.1"
   id="svg10"
   sodipodi:docname="magic.triangle-empty.svg"
   inkscape:version="0.92.4 (5da689c313, 2019-01-14)">
  <metadata
     id="metadata16">
    <rdf:RDF>
      <cc:Work
         rdf:about="">
        <dc:format>image/svg+xml</dc:format>
        <dc:type
           rdf:resource="http://purl.org/dc/dcmitype/StillImage" />
        <dc:title></dc:title>
      </cc:Work>
    </rdf:RDF>
  </metadata>
  <defs
     id="defs14" />
  <sodipodi:namedview
     pagecolor="#ffffff"
     bordercolor="#666666"
     borderopacity="1"
     objecttolerance="10"
     gridtolerance="10"
     guidetolerance="10"
     inkscape:pageopacity="0"
     inkscape:pageshadow="2"
     inkscape:window-width="1703"
     inkscape:window-height="1038"
     id="namedview12"
     showgrid="false"
     inkscape:zoom="0.65186406"
     inkscape:cx="229.87645"
     inkscape:cy="400.41668"
     inkscape:window-x="0"
     inkscape:window-y="20"
     inkscape:window-maximized="0"
     inkscape:current-layer="svg10" />
  <path
     d="M664 592a152 152 0 01-152 152 152 152 0 01-152-152 152 152 0 01152-152 152 152 0 01152 152z"
     fill="#ff2cff"
     id="path2" />
  <path
     d="M1024 512c9 208-137 400-326 476a485 485 0 01-360 7 514 514 0 01-165-870C372-50 712-38 889 164c85 95 136 220 135 348z"
     fill="#639"
     id="path4" />
  <path
     d="M513 134L116 819h794L513 134zm0 48l355 613H158l355-613zm-1 52L205 768h614L512 234zm0 72l99 171c-53-51-148-46-197-1l98-170zm149 256l99 171H568c67-25 108-100 93-171zm-298 2c-20 70 38 149 91 170H264l99-170z"
     fill="#fff"
     id="path6" />
</svg>
