<?xml version="1.0" encoding="UTF-8" standalone="no"?>
<svg
   xmlns:dc="http://purl.org/dc/elements/1.1/"
   xmlns:cc="http://creativecommons.org/ns#"
   xmlns:rdf="http://www.w3.org/1999/02/22-rdf-syntax-ns#"
   xmlns:svg="http://www.w3.org/2000/svg"
   xmlns="http://www.w3.org/2000/svg"
   xmlns:sodipodi="http://sodipodi.sourceforge.net/DTD/sodipodi-0.dtd"
   xmlns:inkscape="http://www.inkscape.org/namespaces/inkscape"
   viewBox="0 0 1500 1125"
   height="1125"
   width="1500"
   version="1.1"
   id="svg18593"
   sodipodi:docname="magic.triangle-empty.svg"
   inkscape:version="0.92.4 (5da689c313, 2019-01-14)">
  <metadata
     id="metadata18599">
    <rdf:RDF>
      <cc:Work
         rdf:about="">
        <dc:format>image/svg+xml</dc:format>
        <dc:type
           rdf:resource="http://purl.org/dc/dcmitype/StillImage" />
        <dc:title></dc:title>
      </cc:Work>
    </rdf:RDF>
  </metadata>
  <defs
     id="defs18597" />
  <sodipodi:namedview
     pagecolor="#ffffff"
     bordercolor="#666666"
     borderopacity="1"
     objecttolerance="10"
     gridtolerance="10"
     guidetolerance="10"
     inkscape:pageopacity="0"
     inkscape:pageshadow="2"
     inkscape:window-width="1918"
     inkscape:window-height="1038"
     id="namedview18595"
     showgrid="false"
     inkscape:zoom="0.295"
     inkscape:cx="-18.463093"
     inkscape:cy="258.89227"
     inkscape:window-x="0"
     inkscape:window-y="20"
     inkscape:window-maximized="1"
     inkscape:current-layer="svg18593" />
  <path
     d="M 752.19358,0.18805848 C 464.00789,-6.5608115 182.57657,168.90985 67.752609,434.36547 -29.059771,650.32936 -24.556871,918.0346 97.021459,1125 H 1409.6171 C 1598.739,787.55642 1481.6635,306.13691 1146.1974,105.92038 1029.122,36.182038 889.53207,0.18805848 752.19358,0.18805848 Z"
     id="path18589"
     inkscape:connector-curvature="0"
     style="fill:#663399;stroke-width:2.25053692" />
  <path
     d="M 754.44503,11.436178 99.272899,1102.5038 H 1411.8686 Z m 0,143.975932 213.88781,353.19095 c -114.82398,-103.4827 -319.706,-92.23458 -425.52418,0 z m -319.706,528.66161 c -42.77756,143.97593 81.05222,308.19847 193.62475,350.94128 h -405.2611 z m 641.66347,0 211.6363,350.94128 H 882.77772 C 1024.6191,983.2737 1110.1742,828.04965 1076.4025,684.07372 Z"
     id="path18591"
     inkscape:connector-curvature="0"
     style="fill:#ffffff;stroke-width:2.25053692"
     sodipodi:nodetypes="cccccccccccccccc" />
  <g
     id="g12"
     transform="matrix(0.59585526,0,0,-0.59585526,583.0835,763.63396)" />
</svg>
