<svg xmlns="http://www.w3.org/2000/svg" height="444" width="512">
  <path d="M512 444L256 0 0 444z" fill="#663695"/>
  <circle cx="256" cy="294" r="130" fill="#fff"/>
  <path d="M255.887 73.395A7.5 7.5 0 00248.5 81v53a7.5 7.5 0 1015 0V81a7.5 7.5 0 00-7.613-7.605zm141.082 294.044a7.5 7.5 0 00-4.162 13.78l43 29a7.5 7.5 0 108.386-12.438l-43-29a7.5 7.5 0 00-4.224-1.342zm-282.162.006a7.5 7.5 0 00-4 1.336l-43 29a7.5 7.5 0 108.386 12.438l43-29a7.5 7.5 0 00-4.386-13.774z" fill="#fff"/>
  <path d="M190.297 382.354c-1.218-.406-23.543-22.732-24.355-23.543v-6.495L306.39 213.49c2.03-.812 2.03-.812 4.06 0l24.76 24.355c1.219 1.624 1.219 3.654 0 5.277L195.575 382.76zM319.38 240.282l-10.96-10.96-30.85 30.444c0 .812 10.96 11.366 10.96 11.366 9.742-11.366 22.326-17.455 30.85-30.85zM216.682 250.43l-19.89-6.495 19.89-6.089 6.9-20.296 6.09 20.296 21.107 6.089-21.108 6.495-6.088 20.296zm-30.85-21.92l-9.336-3.247 9.336-3.248 3.247-9.742 3.248 9.742 9.742 3.248-9.742 3.247-3.248 9.742zm64.947 0l-7.306-2.03 7.306-2.841 2.436-7.307 2.435 7.307 7.307 2.841-7.307 2.03-2.435 7.307zm68.6 62.512l-8.93-2.436 8.93-2.841 2.842-9.336 2.842 9.336 9.336 2.841-9.336 2.436-2.842 9.336z" fill="#639"/>
</svg>
