<svg xmlns="http://www.w3.org/2000/svg" height="1125" width="1500">
    <path d="M752 0A739 739 0 0068 434a770 770 0 0029 691h1313c189-337 72-819-264-1019A778 778 0 00752 0z" fill="#639"/>
    <path d="M754 11L99 1103h1313zm0 144l214 354c-114-104-319-93-425 0zM435 684c-43 144 81 308 193 351H223zm641 0l212 351H883a307 307 0 00193-351z" fill="#fff"/>
    <path d="M591 954c-3-1-58-56-60-58v-16l346-342c5-2 5-2 10 0l61 60c3 4 3 9 0 13L604 955l-13-1zm318-350l-27-27-76 75c0 2 27 28 27 28 24-28 55-43 76-76zm-253 25l-49-16 49-15 17-50 15 50 52 15-52 16-15 50zm-76-54l-23-8 23-8 8-24 8 24 24 8-24 8-8 24zm160 0l-18-5 18-7 6-18 6 18 18 7-18 5-6 18zm169 154l-22-6 22-7 7-23 7 23 23 7-23 6-7 23z" fill="#639"/>
</svg>
