<?xml version="1.0" encoding="UTF-8" standalone="no"?>
<svg
   xmlns:dc="http://purl.org/dc/elements/1.1/"
   xmlns:cc="http://creativecommons.org/ns#"
   xmlns:rdf="http://www.w3.org/1999/02/22-rdf-syntax-ns#"
   xmlns:svg="http://www.w3.org/2000/svg"
   xmlns="http://www.w3.org/2000/svg"
   xmlns:sodipodi="http://sodipodi.sourceforge.net/DTD/sodipodi-0.dtd"
   xmlns:inkscape="http://www.inkscape.org/namespaces/inkscape"
   height="1024"
   width="1024"
   version="1.1"
   id="svg338"
   sodipodi:docname="magic.source.two.triangles.svg"
   inkscape:version="0.92.4 (5da689c313, 2019-01-14)">
  <metadata
     id="metadata344">
    <rdf:RDF>
      <cc:Work
         rdf:about="">
        <dc:format>image/svg+xml</dc:format>
        <dc:type
           rdf:resource="http://purl.org/dc/dcmitype/StillImage" />
        <dc:title></dc:title>
      </cc:Work>
    </rdf:RDF>
  </metadata>
  <defs
     id="defs342" />
  <sodipodi:namedview
     pagecolor="#ffffff"
     bordercolor="#666666"
     borderopacity="1"
     objecttolerance="10"
     gridtolerance="10"
     guidetolerance="10"
     inkscape:pageopacity="0"
     inkscape:pageshadow="2"
     inkscape:window-width="1918"
     inkscape:window-height="1038"
     id="namedview340"
     showgrid="false"
     showguides="false"
     inkscape:zoom="0.4609375"
     inkscape:cx="411.74802"
     inkscape:cy="434.47757"
     inkscape:window-x="0"
     inkscape:window-y="20"
     inkscape:window-maximized="1"
     inkscape:current-layer="svg338" />
  <path
     d="M 664,592 A 152,152 0 0 1 512,744 152,152 0 0 1 360,592 152,152 0 0 1 512,440.00001 152,152 0 0 1 664,592 Z"
     id="path330-7"
     inkscape:connector-curvature="0"
     style="fill:#ff2cff;stroke-width:0.60799998;fill-opacity:1" />
  <path
     style="fill:#663399;stroke-width:1"
     d="m 1024,512 c 9.2546,208.00618 -137.40677,400.12949 -326.18533,476.00072 -113.404,48.25368 -244.26606,50.34218 -359.38479,6.52244 C 118.89746,923.81491 -17.836746,684.6779 1.8341388,459.74925 10.854225,330.81821 79.244865,211.33377 173.19302,124.99725 372.29343,-50.141126 712.34564,-38.479299 888.90549,163.64909 973.73164,258.91028 1024.9534,383.81728 1024,512 Z"
     id="circle328"
     inkscape:connector-curvature="0" />
  <path
     style="fill:#ffffff;stroke-width:0.60799998"
     d="M 513 134.27539 L 116 819 L 910 819 C 778.09243 590.98921 644.92848 362.27409 513 134.27539 z M 513 182.39648 L 867.89453 794.93945 L 158.10547 794.93945 L 513 182.39648 z M 512 234 C 409.66667 412 307.33333 590 205 768 L 819 768 C 716.66667 590 614.33333 412 512 234 z M 512 306 C 545.1237 363.03125 578.24739 420.0625 611.37109 477.09375 C 558.12602 425.80703 463.18907 431.39302 413.76172 475.53906 C 446.50797 419.02602 479.25375 362.51304 512 306 z M 660.96094 562.47852 C 693.97396 619.31901 726.98698 676.15951 760 733 C 695.90299 733.12891 631.80599 733.25781 567.70898 733.38672 C 634.73059 708.22746 676.35118 632.53009 660.96094 562.47852 z M 362.76562 563.55078 C 343.01353 633.60654 400.70083 713.07339 453.95898 733.61719 C 390.639 733.74456 327.31998 733.87263 264 734 C 296.92187 677.18359 329.84375 620.36719 362.76562 563.55078 z "
     id="path330" />
  <path
     style="fill:#663399;stroke-width:0.62"
     d="M 510.76367 504 C 462.83735 503.8576 419.85203 535.26471 408.91016 575.92188 L 391.2207 575.33008 L 390 606.17188 L 408.91016 607.35742 C 424.16016 638.20018 458.31977 642.94574 491.25977 647.09766 L 491.25977 688.61719 L 518.71094 686.24414 L 520.53906 647.69141 L 539.44922 647.09766 C 532.12922 704.03813 599.83914 712.34142 613.86914 654.21484 L 590.08008 650.06445 C 583.37008 680.90715 557.13907 671.41681 566.28906 642.35352 C 579.09906 634.64278 605.33054 632.86201 616.31055 607.35742 L 634 606.17188 L 634 576.51562 L 616.31055 575.92188 C 613.26055 567.61806 609.60061 562.87333 602.89062 557.53516 L 585.81055 567.02539 C 587.64055 575.3292 593.12937 581.85349 588.85938 594.90234 C 569.94939 634.04889 442.46055 626.33849 433.31055 589.56445 C 430.26055 543.30036 513.82946 505.93379 575.43945 552.79102 C 576.65945 552.79102 591.30078 539.74227 591.30078 537.96289 C 566.09063 514.08943 537.64917 504.07988 510.76367 504 z M 511 547 A 31 31 0 0 0 480 578 A 31 31 0 0 0 511 609 A 31 31 0 0 0 542 578 A 31 31 0 0 0 511 547 z "
     id="path332" />
</svg>
