<?xml version="1.0" encoding="UTF-8" standalone="no"?>
<svg
   xmlns:dc="http://purl.org/dc/elements/1.1/"
   xmlns:cc="http://creativecommons.org/ns#"
   xmlns:rdf="http://www.w3.org/1999/02/22-rdf-syntax-ns#"
   xmlns:svg="http://www.w3.org/2000/svg"
   xmlns="http://www.w3.org/2000/svg"
   xmlns:sodipodi="http://sodipodi.sourceforge.net/DTD/sodipodi-0.dtd"
   xmlns:inkscape="http://www.inkscape.org/namespaces/inkscape"
   height="1024"
   width="1024"
   version="1.1"
   id="svg264"
   sodipodi:docname="magic.source.round.svg"
   inkscape:version="0.92.4 (5da689c313, 2019-01-14)">
  <metadata
     id="metadata270">
    <rdf:RDF>
      <cc:Work
         rdf:about="">
        <dc:format>image/svg+xml</dc:format>
        <dc:type
           rdf:resource="http://purl.org/dc/dcmitype/StillImage" />
        <dc:title></dc:title>
      </cc:Work>
    </rdf:RDF>
  </metadata>
  <defs
     id="defs268" />
  <sodipodi:namedview
     pagecolor="#ffffff"
     bordercolor="#666666"
     borderopacity="1"
     objecttolerance="10"
     gridtolerance="10"
     guidetolerance="10"
     inkscape:pageopacity="0"
     inkscape:pageshadow="2"
     inkscape:window-width="1918"
     inkscape:window-height="1038"
     id="namedview266"
     showgrid="false"
     inkscape:zoom="0.23046875"
     inkscape:cx="30.372881"
     inkscape:cy="512"
     inkscape:window-x="0"
     inkscape:window-y="20"
     inkscape:window-maximized="1"
     inkscape:current-layer="svg264" />
  <circle
     cx="512"
     cy="512"
     r="512"
     fill="#639"
     id="circle254" />
  <path
     d="M762 494a250 250 0 01-250 250 250 250 0 01-250-250 250 250 0 01250-250 250 250 0 01250 250z"
     fill="#fff"
     id="path256" />
  <path
     d="M562 468a50 50 0 01-50 50 50 50 0 01-50-50 50 50 0 0150-50 50 50 0 0150 50z"
     fill="#639"
     id="path258" />
  <path
     d="M437 70l-1 1L86 656c-33 55 10 127 76 127h701c66 0 108-72 75-127L588 71l-1-2c-40-52-119-46-150 1zm101 30l350 584c12 20-2 42-25 42H162c-24 0-37-22-25-42L487 99c15-18 40-15 51 1z"
     fill="#fff"
     id="path260" />
  <path
     d="M343 467l-29-1-2 52 31 2c25 52 81 60 135 67v70l45-4 3-65 31-1c-12 96 99 110 122 12l-39-7c-11 52-54 36-39-13 21-13 64-16 82-59l29-2v-50l-29-1c-5-14-11-22-22-31l-28 16c3 14 12 25 5 47-31 66-240 53-255-9-5-78 132-141 233-62 2 0 26-22 26-25-115-112-271-43-299 64z"
     fill="#639"
     id="path262" />
</svg>
