<svg xmlns="http://www.w3.org/2000/svg" height="1125" width="1500">
    <path d="M752 0A739 739 0 0068 434a770 770 0 0029 691h1313c189-337 72-819-264-1019A778 778 0 00752 0z" fill="#639"/>
    <path d="M754 11L99 1103h1313zm0 144l214 354c-114-104-319-93-425 0zM435 684c-43 144 81 308 193 351H223zm641 0l212 351H883a307 307 0 00193-351z" fill="#fff"/>
    <path d="M665 516L557 625c-17 29 25 81 57 64l249 248c56 44 169-54 125-116L741 571c19-39-47-81-76-55zm46 59l148 148H679l-59-60c-29 21-48-14-31-33l91-88c15-14 47 18 31 33zM540 830c77 1 1-141 1-141s-96 141-1 141zm-12-11c-34-6-18-72 1-98-12 36-11 78-1 98z" fill="#639"/>
</svg>
