<svg xmlns="http://www.w3.org/2000/svg" width="600" height="600" viewBox="0 0 600 600">
  <title>magic_03</title>
  <polygon points="320 50.47 73.165 478 566.835 478 320 50.47" fill="#663695" stroke="#663695" stroke-miterlimit="10" stroke-width="16"/>
  <circle cx="318.722" cy="334.237" r="141.884" fill="#fff" stroke="#663695" stroke-miterlimit="10" stroke-width="16"/>
  <path d="M209,334.237s49.124-45.47,109.722-45.47,109.722,45.47,109.722,45.47-49.125,45.471-109.722,45.471S209,334.237,209,334.237Z" fill="#fff" stroke="#663695" stroke-linecap="round" stroke-linejoin="round" stroke-width="16"/>
  <path d="M275.193,260.14a138.95,138.95,0,0,1,43.529-7.373c17.333,0,33.727,3.72,48.3,9.033" fill="#fff" stroke="#663695" stroke-linecap="square" stroke-linejoin="round" stroke-width="16"/>
  <circle cx="318.722" cy="334.237" r="39.625" fill="#663695"/>
  <line x1="318.722" y1="395.592" x2="318.722" y2="449.278" fill="none" stroke="#663695" stroke-linejoin="round" stroke-width="16"/>
  <path d="M345.565,395.592v21.73c0,28.121,31.955,28.121,31.955-7.669" fill="none" stroke="#663695" stroke-linejoin="round" stroke-width="16"/>
  <line x1="318.722" y1="116.592" x2="318.722" y2="170.278" fill="none" stroke="#fff" stroke-linejoin="round" stroke-width="16"/>
  <line x1="509.474" y1="445.037" x2="462.422" y2="419.186" fill="none" stroke="#fff" stroke-linejoin="round" stroke-width="16"/>
  <line x1="132.225" y1="445.659" x2="176.716" y2="415.614" fill="none" stroke="#fff" stroke-linejoin="round" stroke-width="16"/>
</svg>
