<svg xmlns="http://www.w3.org/2000/svg" width="600" height="600" viewBox="0 0 600 600">
  <title>grundstein</title>
  <ellipse cx="299.905" cy="219.75" rx="192.905" ry="196.83" fill="#fdc113"/>
  <path d="M153.375,331.29l-20.5,34.406h71.75V331.29Zm61.5,0V365.7h82V331.29Zm92.25,0V365.7h82V331.29Zm92.25,0V365.7h71.75l-20.5-34.406ZM127.75,374.3,107.25,408.7H158.5V374.3Zm41,0V408.7h82V374.3Zm92.25,0V408.7h82V374.3Zm92.25,0V408.7h82V374.3Zm92.25,0V408.7h51.25L476.25,374.3ZM102.125,417.3l-20.5,34.406h30.75V417.3Zm20.5,0V451.71h82V417.3Zm92.25,0V451.71h82V417.3Zm92.25,0V451.71h82V417.3Zm92.25,0V451.71h82V417.3Zm92.25,0V451.71h30.75l-20.5-34.406ZM76.5,460.311,56,494.717h92.25V460.311Zm82,0v34.406h82V460.311Zm205,0v34.406h82V460.311Zm92.25,0v34.406H548l-20.5-34.406Z" fill="#663695"/>
  <g>
    <g>
      <polygon points="303 69.469 172.348 295.766 433.652 295.766 303 69.469" fill="#663695"/>
      <path d="M440.987,300H165.013L303,61Zm-261.305-8.469H426.318L303,77.938Z" fill="#663695"/>
    </g>
    <g>
      <circle cx="302.323" cy="219.67" r="75.101" fill="#fff"/>
      <path d="M302.323,299.005a79.335,79.335,0,1,1,79.336-79.335A79.425,79.425,0,0,1,302.323,299.005Zm0-150.2A70.866,70.866,0,1,0,373.19,219.67,70.946,70.946,0,0,0,302.323,148.8Z" fill="#663695"/>
    </g>
    <g>
      <path d="M244.246,219.67s26-24.068,58.077-24.068S360.4,219.67,360.4,219.67s-26,24.068-58.077,24.068S244.246,219.67,244.246,219.67Z" fill="#fff"/>
      <path d="M302.323,247.973c-33.35,0-59.842-24.166-60.953-25.2a4.234,4.234,0,0,1,0-6.215c1.111-1.029,27.6-25.195,60.953-25.195s59.842,24.166,60.954,25.195a4.234,4.234,0,0,1,0,6.215C362.165,223.807,335.674,247.973,302.323,247.973Zm-51.433-28.3c8.092,6.271,28.272,19.834,51.433,19.834s43.342-13.563,51.433-19.834c-8.089-6.269-28.27-19.833-51.433-19.833S258.982,213.4,250.89,219.67Zm-6.644,0h0Z" fill="#663695"/>
    </g>
    <circle cx="302.323" cy="219.67" r="20.974" fill="#663695"/>
  </g>
</svg>
