<svg xmlns="http://www.w3.org/2000/svg" viewBox="0 0 512 444">
  <path d="M512 444L256 0 0 444z" fill="#663695"/>
  <circle cx="256" cy="294" r="130" fill="#fff"/>
  <circle cx="256" cy="281" r="40" fill="#663695"/>
  <path fill="#663695" d="M256.955 194a142.003 142.003 0 00-44.508 7.418 8 8 0 105.106 15.164 125.996 125.996 0 0139.47-6.58c16.05.003 30.974 2.843 43.827 8.352a8 8 0 106.3-14.708C292.01 197.157 274.941 194 257 194a8 8 0 00-.045 0zM256 229c-64.178 0-111.717 49.404-111.717 49.404a8 8 0 00.254 11.44S192.177 335 256 335c62.887 0 111.4-45.098 111.4-45.098a8 8 0 00.256-11.558S319.25 229 256 229zm0 16c43.133 0 79.62 26.972 93.57 38.734C335.292 294.695 298.96 319 256 319c-43.896 0-79.77-24.36-93.709-35.264C175.897 272.042 211.911 245 256 245zm-.121 96.887A8 8 0 00248 350v44a8 8 0 1016 0v-44a8 8 0 00-8.121-8.113zm24.178 0a8 8 0 00-8.034 8.726l1 13-.017-.316c.301 8.13 2.632 14.98 6.842 19.951 4.21 4.971 10.643 7.847 17.002 7.066 6.358-.78 11.981-4.96 15.601-10.935C316.071 373.403 318 365.598 318 356a8 8 0 10-16 0c0 7.402-1.57 12.347-3.232 15.09-1.662 2.743-3.101 3.251-3.868 3.346-.766.094-1.52.032-2.841-1.528-1.322-1.56-2.866-4.835-3.065-10.205a8 8 0 00-.017-.316l-1-13a8 8 0 00-7.92-7.5z"/>
  <path fill="#fff" d="M255.887 73.395A7.5 7.5 0 00248.5 81v53a7.5 7.5 0 1015 0V81a7.5 7.5 0 00-7.613-7.605zm141.082 294.044a7.5 7.5 0 00-4.162 13.78l43 29a7.5 7.5 0 108.386-12.438l-43-29a7.5 7.5 0 00-4.224-1.342zm-282.162.006a7.5 7.5 0 00-4 1.336l-43 29a7.5 7.5 0 108.386 12.438l43-29a7.5 7.5 0 00-4.386-13.774z"/>
</svg>
