<svg xmlns="http://www.w3.org/2000/svg" viewBox="0 0 512 444">
  <path d="M512 444L256 0 0 444z" fill="#663695"/>
  <circle cx="256" cy="294" r="130" fill="#fff"/>
  <path d="M256 81v53m184 270l-43-29M72 404l43-29" fill="none" stroke="#fff" stroke-width="15" stroke-linecap="round" stroke-linejoin="round"/>
  <path d="M232 262l40 19 74-35m-74 35v88m73-84l-74 41-63-36" fill="none" stroke="#639" stroke-width="4"/>
  <path d="M234 346l-2-84 74-33" fill="none" stroke="#639" stroke-width="4"/>
  <path d="M311 346l1-83-76-35" fill="none" stroke="#639" stroke-width="4"/>
  <path d="M225 271l7-3m-36 28l1 27 75 47 72-45 2-79-74-33-36 15 1 32" fill="none" stroke="#639" stroke-width="9"/>
  <path d="M154 281l33 19 38-17-1-37-36-16-37 13z" fill="none" stroke="#639" stroke-width="9"/>
  <path d="M186 260l1 39zm-33-17l33 17 38-14" fill="none" stroke="#639" stroke-width="4"/>
</svg>
