<svg xmlns="http://www.w3.org/2000/svg" width="500" height="411">
    <path d="M0 0l160-75L455 64" fill="none" stroke="#639" stroke-width="17" transform="matrix(.61694 0 0 -.61635 208 134)"/>
    <path d="M0 0v-350" fill="none" stroke="#639" stroke-width="17" transform="matrix(.61694 0 0 -.61635 307 180)"/>
    <path d="M0 0l-294-162-255 143" fill="none" stroke="#639" stroke-width="17" transform="matrix(.61694 0 0 -.61635 487 190)"/>
    <path d="M0 0l-9 334 296 134" fill="none" stroke="#639" stroke-width="17" transform="matrix(.61694 0 0 -.61635 214 339)"/>
    <path d="M0 0l2 329-303 139" fill="none" stroke="#639" stroke-width="17" transform="matrix(.61694 0 0 -.61635 404 338)"/>
    <path d="M0 0l29 13" fill="none" stroke="#639" stroke-width="34" transform="matrix(.61694 0 0 -.61635 191 156)"/>
    <path d="M-163-144l3-107 298-190 288 182 8 315-296 132-143-63L0 0" fill="none" stroke="#639" stroke-width="34" transform="matrix(.61694 0 0 -.61635 222 127)"/>
    <path d="M0 0l133-75L282-5l-3 146-142 66-147-54z" fill="none" stroke="#639" stroke-width="34" transform="matrix(.61694 0 0 -.61635 17 180)"/>
    <path d="M0 0l6-154z" fill="none" stroke="#639" stroke-width="17" transform="matrix(.61694 0 0 -.61635 95 128)"/>
    <path d="M0 0l131-68L283-9" fill="none" stroke="#639" stroke-width="17" transform="matrix(.61694 0 0 -.61635 15 87)"/>
</svg>
